<svg class="svg-icon" style="stroke-width:2px;width: 1em; height: 1em;vertical-align: middle;fill: currentColor;overflow: hidden;" viewBox="0 0 1024 1024" version="1.1" xmlns="http://www.w3.org/2000/svg">
<path d="M768 394.666667a53.393333 53.393333 0 0 0-53.333333-53.333334H309.333333a53.393333 53.393333 0 0 0-53.333333 53.333334v234.666666a53.393333 53.393333 0 0 0 53.333333 53.333334h405.333334a53.393333 53.393333 0 0 0 53.333333-53.333334z m-42.666667 234.666666a10.666667 10.666667 0 0 1-10.666666 10.666667H309.333333a10.666667 10.666667 0 0 1-10.666666-10.666667V394.666667a10.666667 10.666667 0 0 1 10.666666-10.666667h405.333334a10.666667 10.666667 0 0 1 10.666666 10.666667zM42.666667 320a21.333333 21.333333 0 0 1 21.333333-21.333333h138.666667a10.666667 10.666667 0 0 0 10.666666-10.666667V149.333333a21.333333 21.333333 0 0 1 42.666667 0v138.666667a53.393333 53.393333 0 0 1-53.333333 53.333333H64a21.333333 21.333333 0 0 1-21.333333-21.333333z m725.333333-32V149.333333a21.333333 21.333333 0 0 1 42.666667 0v138.666667a10.666667 10.666667 0 0 0 10.666666 10.666667h138.666667a21.333333 21.333333 0 0 1 0 42.666666h-138.666667a53.393333 53.393333 0 0 1-53.333333-53.333333z m-512 448v138.666667a21.333333 21.333333 0 0 1-42.666667 0v-138.666667a10.666667 10.666667 0 0 0-10.666666-10.666667H64a21.333333 21.333333 0 0 1 0-42.666666h138.666667a53.393333 53.393333 0 0 1 53.333333 53.333333z m725.333333-32a21.333333 21.333333 0 0 1-21.333333 21.333333h-138.666667a10.666667 10.666667 0 0 0-10.666666 10.666667v138.666667a21.333333 21.333333 0 0 1-42.666667 0v-138.666667a53.393333 53.393333 0 0 1 53.333333-53.333333h138.666667a21.333333 21.333333 0 0 1 21.333333 21.333333z" fill="white" /></svg>