<svg class="svg-icon" style="width: 1em; height: 1em;vertical-align: middle;fill: currentColor;overflow: hidden;" viewBox="0 0 1024 1024" version="1.1" xmlns="http://www.w3.org/2000/svg"><path d="M243.222999 284.925285c1.372254 0.813528 2.736321 1.642406 4.117784 2.439562 11.06501 6.386454 12.923334 20.132526 3.727904 29.76286-8.037047 8.41874-16.428158 16.496719-24.644283 24.743544-1.425466 1.431605-2.762927 2.950192-4.851494 5.190209 2.847861 0.165776 4.793166 0.382717 6.737448 0.3776 158.818145-0.367367 317.637314-0.633427 476.454435-1.264806 24.364921-0.096191 48.559972-0.533143 72.378448 5.938246 55.314817 15.028275 88.587618 55.331189 92.311429 112.515586 0.388856 5.980201 0.768503 12.099572-0.035816 17.99177-1.321088 9.656941-9.188266 16.031115-18.520819 16.126282-9.386788 0.096191-17.372669-5.983271-18.956747-15.648398-1.540076-9.398044-1.343601-19.089777-3.032056-28.450983-6.771217-37.533848-31.055297-57.783031-66.831105-66.010412-16.700357-3.840468-33.656541-5.059226-50.78157-3.198856-3.90903 0.423649-7.889691 0.284479-11.836583 0.294713-157.155273 0.379647-314.309522 0.74906-471.465818 1.118473-2.433422 0.004093-4.866844 0-7.300266 0l-1.695619 2.227738c2.00875 1.341554 4.284583 2.408863 5.981225 4.068665 8.470929 8.284687 16.969487 16.554024 25.109887 25.15696 7.104815 7.507998 6.705726 18.758226-0.403182 25.871227-7.141654 7.14677-18.421558 7.690146-25.832342 0.410346-21.35333-20.976754-42.48972-42.176588-63.4808-63.516616-2.616594-2.659573-3.841491-6.686283-5.713118-10.078543v-4.989641c2.747577-4.533246 4.759397-9.782807 8.364504-13.478989 18.410302-18.887163 37.151132-37.45403 55.969733-55.935963 4.360308-4.282536 9.478885-7.795547 14.248515-11.661598l9.980306 0.001024zM783.319917 716.504674c-1.373277-0.813528-2.737344-1.641383-4.117784-2.440585-11.06501-6.385431-12.924357-20.132526-3.728928-29.762861 8.037047-8.41874 16.429181-16.496719 24.644283-24.743544 1.427512-1.430582 2.76395-2.950192 4.852518-5.190209-2.846838-0.165776-4.793166-0.382717-6.736424-0.3776-158.819169 0.367367-317.637314 0.633427-476.45546 1.264806-24.364921 0.096191-48.558949 0.533143-72.378447-5.939269-55.313793-15.028275-88.588641-55.329143-92.311429-112.514563-0.38988-5.981225-0.769526-12.098549 0.035816-17.990746 1.320065-9.657964 9.187243-16.032138 18.519795-16.127306 9.386788-0.096191 17.373693 5.983271 18.956748 15.647375 1.540076 9.397021 1.343601 19.089777 3.032056 28.450982 6.771217 37.532825 31.054273 57.784054 66.829058 66.011437 16.702404 3.840468 33.657564 5.058203 50.78157 3.199878 3.911076-0.424672 7.889691-0.285502 11.836583-0.295735 157.156296-0.38067 314.310545-0.74906 471.465818-1.117451 2.433422-0.00614 4.867868-0.001023 7.30129-0.001023l1.701758-2.233877c-2.01182-1.338485-4.288676-2.40477-5.986341-4.063549-8.471952-8.283664-16.968463-16.553001-25.109888-25.155937-7.104815-7.509021-6.706749-18.758226 0.401136-25.871227 7.140631-7.147794 18.422581-7.693216 25.832342-0.411369 21.35333 20.97573 42.48972 42.175565 63.479777 63.515592 2.617617 2.659573 3.843538 6.685259 5.714141 10.079566v4.989641c-2.746554 4.53427-4.758374 9.782807-8.363481 13.480013-18.410302 18.886139-37.151132 37.45403-55.968709 55.93494-4.362354 4.28356-9.479909 7.795547-14.249539 11.661598l-9.978259 0.001023z" fill="" /></svg>