<svg viewBox="0 0 32 32" xml:space="preserve" xmlns="http://www.w3.org/2000/svg" enable-background="new 0 0 32 32">
<path d="M10.957 7.697c3.498-.004 11.434-.002 14.932-.001.566-.023 1.094.455 1.096 1.027.01 2.9-.002 5.802.004 8.7 1.547.006 3.092 0 4.639.004-2.057 2.275-4.133 4.535-6.196 6.802-.097.175-.211.003-.3-.084-2.024-2.247-4.092-4.46-6.11-6.713 1.541-.015 3.082 0 4.623-.009.017-2.126.015-4.255.002-6.382-1.666-.007-7.769.001-9.435-.004-1.071-1.123-2.184-2.213-3.252-3.342l-.003.002zM6.576 7.772c.106-.189.231.029.327.117 2.021 2.231 4.074 4.436 6.08 6.68-1.543.015-3.088-.004-4.633.009-.006 2.125-.002 4.25 0 6.375 1.668.016 7.959-.002 9.629.008 1.076 1.121 2.185 2.211 3.248 3.342-3.519 0-11.656.004-15.172-.002-.572.006-1.063-.516-1.041-1.082-.002-2.883.002-5.762-.002-8.642-1.545-.006-3.093.002-4.64-.004 2.057-2.279 4.13-4.538 6.204-6.801z" fill="#fff7f7" class="fill-000000"></path></svg>