<?xml version="1.0" encoding="utf-8"?>
<!-- Generator: Adobe Illustrator 22.0.0, SVG Export Plug-In . SVG Version: 6.00 Build 0)  -->
<svg version="1.1" id="Layer_1" xmlns="http://www.w3.org/2000/svg" xmlns:xlink="http://www.w3.org/1999/xlink" x="0px" y="0px"
	 viewBox="0 0 32 32" style="enable-background:new 0 0 32 32;fill:white" xml:space="preserve">
<g>
	<path d="M3,14c0.6,0,1-0.4,1-1V4h6c0.6,0,1-0.4,1-1s-0.4-1-1-1H3C2.4,2,2,2.4,2,3v10C2,13.6,2.4,14,3,14z"/>
	<path d="M21,3c0,0.6,0.4,1,1,1h6v9c0,0.6,0.4,1,1,1s1-0.4,1-1V3c0-0.6-0.4-1-1-1h-7C21.4,2,21,2.4,21,3z"/>
	<path d="M3,30h7c0.6,0,1-0.4,1-1s-0.4-1-1-1H4v-9c0-0.6-0.4-1-1-1s-1,0.4-1,1v10C2,29.6,2.4,30,3,30z"/>
	<path d="M22,30h7c0.6,0,1-0.4,1-1V19c0-0.6-0.4-1-1-1s-1,0.4-1,1v9h-6c-0.6,0-1,0.4-1,1S21.4,30,22,30z"/>
	<circle cx="16" cy="16" r="2"/>
	<path d="M25,23V9c0-0.6-0.4-1-1-1H8C7.4,8,7,8.4,7,9v14c0,0.6,0.4,1,1,1h16C24.6,24,25,23.6,25,23z M16,20c-2.2,0-4-1.8-4-4
		s1.8-4,4-4s4,1.8,4,4S18.2,20,16,20z"/>
</g>
</svg>
